# xmcd
#
# Track frame offsets:
#	150
#	18908
#	40784
#	60251
#
# Disc length: 1111 seconds
#
# Revision: 2
# Processed by: cddbd v1.4PL0 Copyright (c) Steve Scherf et al.
# Submitted via: EZCDDA 4.3.2
#
DISCID=22045504
DTITLE=Kasey Chambers - If I Were You
DYEAR=1900
DGENRE=
TTITLE0=If I Were You
TTITLE1=Nullarbor Song
TTITLE2=Changed The Locks
TTITLE3=Million Tears (live)
EXTD=
EXTT0=
EXTT1=
EXTT2=
EXTT3=
PLAYORDER=
